solid base
  facet normal -2.3458e-06 -3.1565e-06 -1.0000e+00
    outer loop
      vertex -5.3699e-02 -5.3139e-02 -1.9566e-08
      vertex 8.2881e-03 -7.5083e-02 -9.5709e-08
      vertex -2.8879e-03 -7.5508e-02 -6.8151e-08
    endloop
  endfacet
  facet normal -6.3556e-07 4.1642e-07 -1.0000e+00
    outer loop
      vertex -5.9028e-02 4.7073e-02 -2.0576e-09
      vertex 8.2881e-03 -7.5083e-02 -9.5709e-08
      vertex -7.4253e-02 1.4017e-02 -6.1464e-09
    endloop
  endfacet
  facet normal -9.9817e-07 5.8343e-07 -1.0000e+00
    outer loop
      vertex -7.4253e-02 1.4017e-02 -6.1464e-09
      vertex -6.8022e-02 3.2758e-02 -1.4319e-09
      vertex -5.9028e-02 4.7073e-02 -2.0576e-09
    endloop
  endfacet
  facet normal 4.0217e-06 -3.8028e-06 -1.0000e+00
    outer loop
      vertex 5.1352e-02 -5.5345e-02 2.4192e-09
      vertex 8.2881e-03 -7.5083e-02 -9.5709e-08
      vertex 5.7255e-02 -4.9262e-02 3.0264e-09
    endloop
  endfacet
  facet normal 3.9335e-05 -2.0833e-05 -1.0000e+00
    outer loop
      vertex 6.6772e-02 -3.5307e-02 2.4137e-08
      vertex 6.2380e-02 -4.2530e-02 1.8591e-09
      vertex 7.0280e-02 -2.7583e-02 1.2057e-09
    endloop
  endfacet
  facet normal -6.2701e-06 -2.7151e-06 -1.0000e+00
    outer loop
      vertex -6.6574e-02 -3.5715e-02 1.3853e-08
      vertex -7.1323e-02 -2.4972e-02 1.4461e-08
      vertex -5.3699e-02 -5.3139e-02 -1.9566e-08
    endloop
  endfacet
  facet normal 9.4485e-01 3.2737e-01 -9.0953e-03
    outer loop
      vertex 7.2961e-02 1.9537e-02 5.6492e-09
      vertex 6.9253e-02 3.0239e-02 -4.4703e-09
      vertex 7.1052e-02 2.5543e-02 1.7862e-02
    endloop
  endfacet
  facet normal 4.5591e-01 -8.6431e-01 2.1239e-01
    outer loop
      vertex 3.7474e-02 -6.4906e-02 2.1342e-02
      vertex 2.6950e-02 -5.1350e-02 9.9099e-02
      vertex 3.2173e-02 -6.7481e-02 2.2242e-02
    endloop
  endfacet
  facet normal 7.6882e-01 -6.0231e-01 2.1479e-01
    outer loop
      vertex 4.7727e-02 -3.2943e-02 9.9099e-02
      vertex 4.3408e-02 -3.8456e-02 9.9099e-02
      vertex 5.9953e-02 -4.4878e-02 2.1869e-02
    endloop
  endfacet
  facet normal -7.8075e-06 -2.3757e-05 -1.0000e+00
    outer loop
      vertex -2.8879e-03 -7.5508e-02 -6.8151e-08
      vertex -2.2254e-02 -7.2145e-02 3.1536e-09
      vertex -3.0649e-02 -6.9051e-02 -4.8079e-09
    endloop
  endfacet
  facet normal -7.1644e-01 -6.9757e-01 1.0295e-02
    outer loop
      vertex -5.1262e-02 -5.5380e-02 1.7748e-02
      vertex -5.6977e-02 -4.9506e-02 1.8045e-02
      vertex -5.3699e-02 -5.3139e-02 -1.9566e-08
    endloop
  endfacet
  facet normal -9.8773e-01 3.8341e-02 1.5139e-01
    outer loop
      vertex -7.4830e-02 7.2642e-05 2.1934e-02
      vertex -7.4609e-02 5.4898e-03 2.2004e-02
      vertex -7.5259e-02 5.5493e-03 1.7748e-02
    endloop
  endfacet
  facet normal -7.3820e-01 -6.4897e-01 1.8412e-01
    outer loop
      vertex -5.8596e-02 -4.6729e-02 2.1342e-02
      vertex -5.6977e-02 -4.9506e-02 1.8045e-02
      vertex -5.3299e-02 -5.2811e-02 2.1142e-02
    endloop
  endfacet
  facet normal -6.0231e-01 -7.6882e-01 2.1482e-01
    outer loop
      vertex -3.8456e-02 -4.3408e-02 9.9099e-02
      vertex -4.4936e-02 -5.9961e-02 2.1689e-02
      vertex -3.2943e-02 -4.7727e-02 9.9099e-02
    endloop
  endfacet
  facet normal -9.7879e-01 -2.0462e-01 9.6422e-03
    outer loop
      vertex -7.4598e-02 -1.1372e-02 1.7784e-02
      vertex -7.4219e-02 -1.4023e-02 7.8653e-09
      vertex -7.2754e-02 -2.0192e-02 1.7803e-02
    endloop
  endfacet
  facet normal 5.8809e-01 8.0867e-01 1.4425e-02
    outer loop
      vertex 4.8848e-02 5.7572e-02 1.7762e-02
      vertex 4.4453e-02 6.1085e-02 -2.5837e-09
      vertex 3.9889e-02 6.4082e-02 1.8055e-02
    endloop
  endfacet
  facet normal 1.3735e-05 2.0734e-06 -1.0000e+00
    outer loop
      vertex 7.2961e-02 1.9537e-02 5.6492e-09
      vertex 7.5020e-02 8.9243e-03 1.1925e-08
      vertex 7.5499e-02 -2.7427e-08 2.4840e-15
    endloop
  endfacet
  facet normal -6.5457e-01 7.5595e-01 -8.9264e-03
    outer loop
      vertex -5.3395e-02 5.3423e-02 4.9139e-09
      vertex -4.9770e-02 5.6773e-02 1.7881e-02
      vertex -4.4872e-02 6.0803e-02 3.1237e-09
    endloop
  endfacet
  facet normal -1.7239e-01 9.8502e-01 3.9097e-03
    outer loop
      vertex -1.6880e-02 7.3551e-02 1.7748e-02
      vertex -8.7715e-03 7.4969e-02 1.8021e-02
      vertex -8.5174e-03 7.5085e-02 -1.2186e-09
    endloop
  endfacet
  facet normal -1.9337e-01 9.6736e-01 1.6379e-01
    outer loop
      vertex -1.6880e-02 7.3551e-02 1.7748e-02
      vertex -1.9096e-02 7.2404e-02 2.1906e-02
      vertex -1.1359e-02 7.3902e-02 2.2193e-02
    endloop
  endfacet
  facet normal -8.9641e-01 3.8849e-01 2.1337e-01
    outer loop
      vertex -5.4224e-02 2.0564e-02 9.9099e-02
      vertex -6.7521e-02 3.2335e-02 2.1805e-02
      vertex -6.9683e-02 2.7286e-02 2.1915e-02
    endloop
  endfacet
  facet normal 9.3345e-01 -3.2464e-01 1.5257e-01
    outer loop
      vertex 6.9567e-02 -2.7508e-02 2.2087e-02
      vertex 7.2144e-02 -2.2121e-02 1.7783e-02
      vertex 7.1484e-02 -2.1996e-02 2.2087e-02
    endloop
  endfacet
  facet normal 3.5086e-02 -9.8676e-01 1.5838e-01
    outer loop
      vertex 3.6136e-05 -7.4793e-02 2.2083e-02
      vertex 3.0410e-04 -7.5486e-02 1.7706e-02
      vertex 5.6961e-03 -7.4620e-02 2.1907e-02
    endloop
  endfacet
  facet normal -3.8106e-02 -9.8781e-01 1.5096e-01
    outer loop
      vertex -5.5036e-03 -7.5256e-02 1.7745e-02
      vertex 3.0410e-04 -7.5486e-02 1.7706e-02
      vertex -5.5100e-03 -7.4598e-02 2.2049e-02
    endloop
  endfacet
  facet normal -9.0047e-01 -3.9787e-01 1.7567e-01
    outer loop
      vertex -6.7417e-02 -3.2282e-02 2.2253e-02
      vertex -6.9627e-02 -2.7433e-02 2.1907e-02
      vertex -6.8949e-02 -3.0753e-02 1.7863e-02
    endloop
  endfacet
  facet normal -8.3577e-01 -5.0526e-01 2.1494e-01
    outer loop
      vertex -5.1350e-02 -2.6950e-02 9.9099e-02
      vertex -6.3516e-02 -3.9735e-02 2.1741e-02
      vertex -4.7727e-02 -3.2943e-02 9.9099e-02
    endloop
  endfacet
  facet normal 2.4891e-01 -9.4729e-01 2.0171e-01
    outer loop
      vertex 1.3602e-02 -7.3597e-02 2.2062e-02
      vertex 2.0132e-02 -7.2767e-02 1.7902e-02
      vertex 2.4465e-02 -7.0748e-02 2.2037e-02
    endloop
  endfacet
  facet normal 3.8067e-01 -9.0884e-01 1.7060e-01
    outer loop
      vertex 2.4465e-02 -7.0748e-02 2.2037e-02
      vertex 2.7687e-02 -7.0197e-02 1.7783e-02
      vertex 3.2173e-02 -6.7481e-02 2.2242e-02
    endloop
  endfacet
  facet normal 8.8250e-01 4.7025e-01 -7.9280e-03
    outer loop
      vertex 6.6594e-02 3.5533e-02 1.8027e-02
      vertex 6.9253e-02 3.0239e-02 -4.4703e-09
      vertex 6.3950e-02 4.0191e-02 -8.6692e-10
    endloop
  endfacet
  facet normal -5.8999e-02 9.7497e-01 2.1436e-01
    outer loop
      vertex -2.2583e-08 5.7992e-02 9.9099e-02
      vertex -5.3877e-03 7.4601e-02 2.2072e-02
      vertex -6.9902e-03 5.7569e-02 9.9099e-02
    endloop
  endfacet
  facet normal 3.8277e-01 9.2381e-01 7.9116e-03
    outer loop
      vertex 3.2704e-02 6.8006e-02 1.7765e-02
      vertex 2.7583e-02 7.0280e-02 -3.0720e-09
      vertex 2.4353e-02 7.1465e-02 1.7904e-02
    endloop
  endfacet
  facet normal -4.5461e-01 8.7250e-01 1.7907e-01
    outer loop
      vertex -3.2855e-02 6.7932e-02 1.7783e-02
      vertex -3.9515e-02 6.3652e-02 2.1729e-02
      vertex -2.9700e-02 6.8695e-02 2.2075e-02
    endloop
  endfacet
  facet normal -4.7921e-01 8.6767e-01 1.3231e-01
    outer loop
      vertex -4.0759e-02 6.3556e-02 1.7853e-02
      vertex -3.9515e-02 6.3652e-02 2.1729e-02
      vertex -3.2855e-02 6.7932e-02 1.7783e-02
    endloop
  endfacet
  facet normal 8.1559e-01 -5.7858e-01 7.9846e-03
    outer loop
      vertex 6.4269e-02 -3.9620e-02 1.7912e-02
      vertex 5.9023e-02 -4.7017e-02 1.7765e-02
      vertex 6.2380e-02 -4.2530e-02 1.8591e-09
    endloop
  endfacet
  facet normal -8.1785e-01 5.3495e-01 2.1203e-01
    outer loop
      vertex -4.7727e-02 3.2943e-02 9.9099e-02
      vertex -6.0056e-02 4.4950e-02 2.1250e-02
      vertex -6.4688e-02 3.7566e-02 2.2013e-02
    endloop
  endfacet
  facet normal -4.5341e-01 -8.7763e-01 1.5552e-01
    outer loop
      vertex -3.7565e-02 -6.4717e-02 2.1915e-02
      vertex -3.7580e-02 -6.5428e-02 1.7859e-02
      vertex -3.0502e-02 -6.8328e-02 2.2129e-02
    endloop
  endfacet
  facet normal 5.2125e-01 -8.4355e-01 1.2930e-01
    outer loop
      vertex 4.2613e-02 -6.2276e-02 1.7783e-02
      vertex 3.7474e-02 -6.4906e-02 2.1342e-02
      vertex 3.5719e-02 -6.6496e-02 1.8044e-02
    endloop
  endfacet
  facet normal 5.7009e-01 7.9373e-01 2.1211e-01
    outer loop
      vertex 4.6628e-02 5.8480e-02 2.2078e-02
      vertex 4.0143e-02 6.3405e-02 2.1078e-02
      vertex 3.2943e-02 4.7727e-02 9.9099e-02
    endloop
  endfacet
  facet normal 9.7642e-01 -4.1612e-02 2.1185e-01
    outer loop
      vertex 7.4828e-02 2.4807e-03 2.1990e-02
      vertex 5.7992e-02 2.6915e-08 9.9099e-02
      vertex 7.4340e-02 -8.7207e-03 2.2039e-02
    endloop
  endfacet
  facet normal -9.3507e-01 3.1427e-01 1.6394e-01
    outer loop
      vertex -7.2148e-02 2.2090e-02 1.7816e-02
      vertex -7.2208e-02 1.9743e-02 2.1973e-02
      vertex -6.9683e-02 2.7286e-02 2.1915e-02
    endloop
  endfacet
  facet normal 9.3254e-01 -2.9053e-01 2.1440e-01
    outer loop
      vertex 5.4224e-02 -2.0564e-02 9.9099e-02
      vertex 7.1484e-02 -2.1996e-02 2.2087e-02
      vertex 5.6307e-02 -1.3878e-02 9.9099e-02
    endloop
  endfacet
  facet normal 9.5397e-01 -2.5750e-01 1.5377e-01
    outer loop
      vertex 7.1484e-02 -2.1996e-02 2.2087e-02
      vertex 7.2144e-02 -2.2121e-02 1.7783e-02
      vertex 7.2984e-02 -1.6547e-02 2.1906e-02
    endloop
  endfacet
  facet normal 4.7031e-01 8.5669e-01 2.1189e-01
    outer loop
      vertex 2.6950e-02 5.1350e-02 9.9099e-02
      vertex 4.0143e-02 6.3405e-02 2.1078e-02
      vertex 3.2303e-02 6.7436e-02 2.2182e-02
    endloop
  endfacet
  facet normal 7.4234e-01 -6.4591e-01 1.7815e-01
    outer loop
      vertex 5.9953e-02 -4.4878e-02 2.1869e-02
      vertex 5.2716e-02 -5.3356e-02 2.1287e-02
      vertex 5.5323e-02 -5.1308e-02 1.7849e-02
    endloop
  endfacet
  facet normal 9.9855e-01 -5.3712e-02 -4.0586e-03
    outer loop
      vertex 7.5447e-02 -2.3287e-03 1.8025e-02
      vertex 7.5019e-02 -8.9235e-03 -1.4736e-08
      vertex 7.5499e-02 -2.7427e-08 2.4840e-15
    endloop
  endfacet
  facet normal 9.3253e-01 2.9057e-01 2.1440e-01
    outer loop
      vertex 7.1475e-02 2.2016e-02 2.2098e-02
      vertex 5.4224e-02 2.0564e-02 9.9099e-02
      vertex 5.6307e-02 1.3879e-02 9.9099e-02
    endloop
  endfacet
  facet normal 9.9140e-01 1.3041e-01 1.1160e-02
    outer loop
      vertex 7.4065e-02 1.4652e-02 1.7907e-02
      vertex 7.5231e-02 5.7956e-03 1.7816e-02
      vertex 7.5020e-02 8.9243e-03 1.1925e-08
    endloop
  endfacet
  facet normal -1.9804e-02 9.8399e-01 1.7715e-01
    outer loop
      vertex -5.3877e-03 7.4601e-02 2.2072e-02
      vertex 3.2197e-03 7.4807e-02 2.1890e-02
      vertex -1.7564e-04 7.5446e-02 1.7961e-02
    endloop
  endfacet
  facet normal 3.8688e-01 9.0944e-01 1.5248e-01
    outer loop
      vertex 2.5006e-02 7.0570e-02 2.2004e-02
      vertex 3.2303e-02 6.7436e-02 2.2182e-02
      vertex 3.2704e-02 6.8006e-02 1.7765e-02
    endloop
  endfacet
  facet normal 0.0000e+00 0.0000e+00 1.0000e+00
    outer loop
      vertex 3.8456e-02 4.3408e-02 9.9099e-02
      vertex 4.7727e-02 -3.2943e-02 9.9099e-02
      vertex 5.1350e-02 -2.6950e-02 9.9099e-02
    endloop
  endfacet
  facet normal 0.0000e+00 0.0000e+00 1.0000e+00
    outer loop
      vertex 3.8456e-02 4.3408e-02 9.9099e-02
      vertex -2.6950e-02 5.1350e-02 9.9099e-02
      vertex -3.2943e-02 4.7727e-02 9.9099e-02
    endloop
  endfacet
  facet normal -0.0000e+00 0.0000e+00 1.0000e+00
    outer loop
      vertex -4.7727e-02 3.2943e-02 9.9099e-02
      vertex -5.1350e-02 2.6950e-02 9.9099e-02
      vertex 3.8456e-02 4.3408e-02 9.9099e-02
    endloop
  endfacet
  facet normal 0.0000e+00 0.0000e+00 1.0000e+00
    outer loop
      vertex 3.8456e-02 4.3408e-02 9.9099e-02
      vertex 5.4224e-02 2.0564e-02 9.9099e-02
      vertex 5.1350e-02 2.6950e-02 9.9099e-02
    endloop
  endfacet
  facet normal 0.0000e+00 0.0000e+00 1.0000e+00
    outer loop
      vertex 3.8456e-02 4.3408e-02 9.9099e-02
      vertex -4.7727e-02 -3.2943e-02 9.9099e-02
      vertex -4.3408e-02 -3.8456e-02 9.9099e-02
    endloop
  endfacet
  facet normal 0.0000e+00 0.0000e+00 1.0000e+00
    outer loop
      vertex -3.8456e-02 4.3408e-02 9.9099e-02
      vertex 3.8456e-02 4.3408e-02 9.9099e-02
      vertex -3.2943e-02 4.7727e-02 9.9099e-02
    endloop
  endfacet
endsolid base
