solid shoulder
  facet normal -2.9619e-06 1.0000e+00 1.6168e-05
    outer loop
      vertex -1.3879e-02 7.4399e-02 5.5805e-02
      vertex -6.9902e-03 7.4399e-02 5.7067e-02
      vertex -5.6476e-02 7.4400e-02 -1.3749e-02
    endloop
  endfacet
  facet normal 9.9559e-01 6.0239e-02 -7.1862e-02
    outer loop
      vertex 5.7569e-02 7.4399e-02 -7.4923e-03
      vertex 5.7999e-02 2.6917e-08 -6.3901e-02
      vertex 5.7576e-02 6.9911e-03 -6.3901e-02
    endloop
  endfacet
  facet normal -8.7571e-06 1.0000e+00 1.9458e-05
    outer loop
      vertex -5.6476e-02 7.4400e-02 -1.3749e-02
      vertex -2.6950e-02 7.4399e-02 5.0848e-02
      vertex -2.0564e-02 7.4399e-02 5.3722e-02
    endloop
  endfacet
  facet normal -9.6490e-01 -2.6170e-01 -2.1948e-02
    outer loop
      vertex -5.8319e-02 -1.4507e-02 3.1720e-02
      vertex -5.6314e-02 -1.3880e-02 -6.3901e-02
      vertex -5.7418e-02 -1.7718e-02 3.0396e-02
    endloop
  endfacet
  facet normal -6.3235e-01 4.4751e-01 6.3235e-01
    outer loop
      vertex -3.8456e-02 7.4399e-02 4.2906e-02
      vertex -4.3408e-02 7.4399e-02 3.7954e-02
      vertex -4.3470e-02 3.4979e-02 6.5789e-02
    endloop
  endfacet
  facet normal 7.2647e-01 -6.8673e-01 -2.5331e-02
    outer loop
      vertex 4.2189e-02 -4.2803e-02 1.8710e-02
      vertex 4.3413e-02 -3.8461e-02 -6.3901e-02
      vertex 4.4393e-02 -4.0508e-02 1.9700e-02
    endloop
  endfacet
  facet normal 5.3756e-01 4.9009e-01 6.8617e-01
    outer loop
      vertex 3.8456e-02 7.4399e-02 4.2906e-02
      vertex 3.2943e-02 7.4399e-02 4.7225e-02
      vertex 3.5214e-02 4.3265e-02 6.7683e-02
    endloop
  endfacet
  facet normal -0.0000e+00 0.0000e+00 -1.0000e+00
    outer loop
      vertex 2.6954e-02 5.1356e-02 -6.3901e-02
      vertex -3.2947e-02 4.7732e-02 -6.3901e-02
      vertex -2.6954e-02 5.1356e-02 -6.3901e-02
    endloop
  endfacet
  facet normal 3.0797e-02 -9.9290e-01 1.1493e-01
    outer loop
      vertex 2.3635e-04 -5.6706e-02 4.1509e-02
      vertex 7.5824e-05 -6.0014e-02 1.2973e-02
      vertex 3.3258e-03 -5.9889e-02 1.3182e-02
    endloop
  endfacet
  facet normal 3.9534e-01 -5.3542e-01 7.4635e-01
    outer loop
      vertex 3.0673e-02 -3.9158e-02 5.6714e-02
      vertex 3.0979e-02 -4.0464e-02 5.5615e-02
      vertex 4.0074e-02 -3.1528e-02 5.7208e-02
    endloop
  endfacet
  facet normal 8.9214e-02 -3.3958e-01 9.3634e-01
    outer loop
      vertex 1.6365e-02 -3.9622e-02 5.9170e-02
      vertex 1.5693e-02 -4.2487e-02 5.8195e-02
      vertex 2.2360e-02 -3.9547e-02 5.8626e-02
    endloop
  endfacet
  facet normal -4.4607e-01 -8.2889e-01 3.3757e-01
    outer loop
      vertex -2.6007e-02 -4.8584e-02 4.9014e-02
      vertex -2.9905e-02 -4.6325e-02 4.9410e-02
      vertex -2.6717e-02 -4.9499e-02 4.5829e-02
    endloop
  endfacet
  facet normal -7.6429e-01 -5.4975e-01 3.3709e-01
    outer loop
      vertex -4.6867e-02 -3.1558e-02 4.9022e-02
      vertex -4.8153e-02 -2.7586e-02 5.2584e-02
      vertex -4.9212e-02 -2.7830e-02 4.9785e-02
    endloop
  endfacet
  facet normal 8.6214e-01 -2.6078e-01 4.3441e-01
    outer loop
      vertex 5.5124e-02 -1.1622e-02 5.4154e-02
      vertex 5.5376e-02 -7.4623e-03 5.6151e-02
      vertex 5.3878e-02 -1.1680e-02 5.6592e-02
    endloop
  endfacet
  facet normal -4.8498e-01 -1.7757e-01 8.5631e-01
    outer loop
      vertex -5.1616e-02 -3.5122e-03 6.1825e-02
      vertex -4.9539e-02 -5.2691e-03 6.2637e-02
      vertex -5.0308e-02 2.5019e-04 6.3346e-02
    endloop
  endfacet
  facet normal 4.7566e-01 -8.3940e-01 2.6299e-01
    outer loop
      vertex 2.6739e-02 -4.9501e-02 4.5786e-02
      vertex 3.0811e-02 -4.7306e-02 4.5427e-02
      vertex 3.0312e-02 -4.6850e-02 4.7785e-02
    endloop
  endfacet
  facet normal -8.8589e-01 -1.6613e-01 4.3312e-01
    outer loop
      vertex -5.6389e-02 -3.0449e-03 5.5777e-02
      vertex -5.5384e-02 -7.4056e-03 5.6160e-02
      vertex -5.5234e-02 -3.2702e-03 5.8053e-02
    endloop
  endfacet
  facet normal 1.6293e-01 1.3188e-01 9.7778e-01
    outer loop
      vertex 2.1219e-02 4.8726e-02 7.0792e-02
      vertex 2.6195e-02 4.4966e-02 7.0470e-02
      vertex 2.5882e-02 4.7006e-02 7.0247e-02
    endloop
  endfacet
endsolid shoulder
