solid upperarm
  facet normal -9.9056e-04 -9.9944e-01 -3.3355e-02
    outer loop
      vertex -2.0199e-08 -6.3601e-02 -5.8501e-02
      vertex 1.9553e-03 -7.7793e-02 3.6669e-01
      vertex -5.4527e-03 -7.7793e-02 3.6691e-01
    endloop
  endfacet
  facet normal 6.0729e-02 9.9815e-01 2.6619e-05
    outer loop
      vertex 1.6768e-02 7.1395e-02 3.7401e-01
      vertex 2.1648e-02 7.1098e-02 3.7767e-01
      vertex 1.4494e-02 7.1542e-02 4.9752e-02
    endloop
  endfacet
  facet normal -1.2363e-01 -9.9177e-01 -3.3133e-02
    outer loop
      vertex -5.7118e-02 -6.3601e-02 -1.0574e-02
      vertex -5.4501e-02 -6.3601e-02 -2.0339e-02
      vertex -5.4877e-02 -7.7803e-02 4.0617e-01
    endloop
  endfacet
  facet normal -9.3611e-01 3.5170e-01 3.6562e-06
    outer loop
      vertex -5.6681e-02 5.6649e-02 5.2068e-03
      vertex -5.5866e-02 5.8814e-02 4.1909e-01
      vertex -5.5871e-02 5.8805e-02 4.8432e-03
    endloop
  endfacet
  facet normal 7.3589e-01 6.7710e-01 5.0375e-05
    outer loop
      vertex 5.3823e-02 6.1975e-02 8.5278e-03
      vertex 5.2775e-02 6.3084e-02 4.1154e-01
      vertex 5.4200e-02 6.1535e-02 4.1539e-01
    endloop
  endfacet
  facet normal -9.6750e-01 -2.0185e-02 2.5207e-01
    outer loop
      vertex -5.7263e-02 2.9576e-02 4.4271e-01
      vertex -5.8696e-02 3.1825e-02 4.3739e-01
      vertex -5.6915e-02 -7.7016e-02 4.3551e-01
    endloop
  endfacet
  facet normal 6.3587e-01 -2.2120e-02 7.7148e-01
    outer loop
      vertex 3.9723e-02 1.7927e-02 4.6959e-01
      vertex 3.6176e-02 1.6758e-02 4.7248e-01
      vertex 3.6129e-02 -7.7018e-02 4.6983e-01
    endloop
  endfacet
  facet normal 2.7827e-01 -2.8531e-02 -9.6008e-01
    outer loop
      vertex 1.9837e-02 -6.3601e-02 -5.5004e-02
      vertex 1.4122e-02 1.2265e-02 -5.8915e-02
      vertex 1.8654e-02 1.2654e-02 -5.7613e-02
    endloop
  endfacet
  facet normal 9.5589e-01 -1.9642e-02 2.9307e-01
    outer loop
      vertex 5.7514e-02 3.1006e-02 4.4175e-01
      vertex 5.6544e-02 2.9457e-02 4.4481e-01
      vertex 5.6073e-02 -7.7019e-02 4.3921e-01
    endloop
  endfacet
  facet normal -1.4860e-01 1.1414e-01 -9.8229e-01
    outer loop
      vertex -1.1390e-02 1.3432e-02 -5.9440e-02
      vertex -8.8302e-03 4.2031e-02 -5.6504e-02
      vertex -7.2200e-03 1.3508e-02 -6.0062e-02
    endloop
  endfacet
  facet normal -6.0721e-02 7.7238e-01 6.3225e-01
    outer loop
      vertex -2.0331e-03 5.5942e-02 4.7324e-01
      vertex -9.8290e-03 5.6074e-02 4.7233e-01
      vertex -4.1570e-03 5.4187e-02 4.7518e-01
    endloop
  endfacet
  facet normal -3.8405e-01 7.5945e-01 -5.2510e-01
    outer loop
      vertex -4.0098e-02 5.7687e-02 -3.1767e-02
      vertex -3.0627e-02 5.7138e-02 -3.9488e-02
      vertex -3.1184e-02 5.6028e-02 -4.0686e-02
    endloop
  endfacet
  facet normal -4.5528e-01 8.9035e-01 -1.0048e-03
    outer loop
      vertex -4.8884e-02 6.5838e-02 1.3032e-02
      vertex -4.9745e-02 6.5403e-02 1.7698e-02
      vertex -4.6859e-02 6.6882e-02 2.0585e-02
    endloop
  endfacet
  facet normal 2.8052e-01 8.6029e-01 4.2569e-01
    outer loop
      vertex 2.9960e-02 5.9062e-02 4.6038e-01
      vertex 3.0325e-02 5.8176e-02 4.6193e-01
      vertex 3.8099e-02 5.8996e-02 4.5515e-01
    endloop
  endfacet
  facet normal -1.0476e-01 3.3061e-01 9.3794e-01
    outer loop
      vertex -4.5372e-03 4.8269e-02 4.7930e-01
      vertex -9.0846e-03 4.5069e-02 4.7992e-01
      vertex -4.4856e-03 4.4966e-02 4.8047e-01
    endloop
  endfacet
  facet normal -1.5508e-01 4.9782e-01 -8.5330e-01
    outer loop
      vertex -9.2097e-03 4.8361e-02 -5.4728e-02
      vertex -1.2872e-02 5.1615e-02 -5.2164e-02
      vertex -8.6261e-03 5.1479e-02 -5.3015e-02
    endloop
  endfacet
  facet normal 5.7962e-01 6.5635e-01 -4.8296e-01
    outer loop
      vertex 4.4691e-02 5.7845e-02 -2.6718e-02
      vertex 4.6628e-02 5.5523e-02 -2.7549e-02
      vertex 4.3811e-02 5.5567e-02 -3.0870e-02
    endloop
  endfacet
  facet normal -5.7963e-01 6.5622e-01 4.8312e-01
    outer loop
      vertex -4.4691e-02 5.7845e-02 4.5071e-01
      vertex -4.6628e-02 5.5523e-02 4.5154e-01
      vertex -4.3811e-02 5.5567e-02 4.5486e-01
    endloop
  endfacet
endsolid upperarm
