solid wrist1
  facet normal -9.9956e-01 -1.7565e-02 2.3896e-02
    outer loop
      vertex -3.7477e-02 5.3449e-02 -1.5698e-03
      vertex -3.7413e-02 1.2404e-01 5.2995e-02
      vertex -3.9343e-02 1.2628e-01 -2.6090e-02
    endloop
  endfacet
  facet normal -0.0000e+00 -1.0000e+00 0.0000e+00
    outer loop
      vertex 3.4448e-02 5.3449e-02 -1.4054e-02
      vertex 3.0226e-02 5.3449e-02 2.1261e-02
      vertex -1.0336e-02 5.3449e-02 -3.6309e-02
    endloop
  endfacet
  facet normal 9.9244e-01 -6.3767e-02 -1.0491e-01
    outer loop
      vertex 3.7479e-02 5.3449e-02 -1.5807e-03
      vertex 3.6930e-02 5.3449e-02 -6.7744e-03
      vertex 3.9194e-02 1.2285e-01 -2.7542e-02
    endloop
  endfacet
  facet normal -7.4755e-01 -3.1675e-01 -5.8382e-01
    outer loop
      vertex -3.1088e-02 5.3449e-02 -2.1232e-02
      vertex -3.2941e-02 1.1443e-01 -5.1944e-02
      vertex -2.7868e-02 5.3449e-02 -2.5355e-02
    endloop
  endfacet
  facet normal 9.9844e-01 5.0603e-02 2.3442e-02
    outer loop
      vertex 3.9358e-02 1.2659e-01 -2.5906e-02
      vertex 3.9141e-02 1.3030e-01 -2.4672e-02
      vertex 3.7402e-02 1.2862e-01 5.3023e-02
    endloop
  endfacet
  facet normal -8.9391e-01 4.4750e-01 2.5972e-02
    outer loop
      vertex -3.4307e-02 1.4141e-01 5.2990e-02
      vertex -3.2680e-02 1.4466e-01 5.2991e-02
      vertex -3.4809e-02 1.4441e-01 -1.5977e-02
    endloop
  endfacet
  facet normal 3.3245e-01 9.4268e-01 2.8708e-02
    outer loop
      vertex 1.4279e-02 1.6296e-01 -1.1891e-02
      vertex 1.1354e-02 1.6388e-01 -8.2291e-03
      vertex 1.3495e-02 1.6126e-01 5.3011e-02
    endloop
  endfacet
  facet normal 4.1804e-01 -4.3198e-01 7.9914e-01
    outer loop
      vertex 2.3957e-02 9.7962e-02 5.3587e-02
      vertex 1.7605e-02 5.3449e-02 3.2848e-02
      vertex 2.7520e-02 1.0141e-01 5.3587e-02
    endloop
  endfacet
  facet normal -1.2251e-01 9.8840e-01 -8.9756e-02
    outer loop
      vertex -4.2470e-04 1.6287e-01 -4.3846e-02
      vertex -7.0810e-03 1.6501e-01 -1.1195e-02
      vertex -3.1730e-03 1.6552e-01 -1.0913e-02
    endloop
  endfacet
  facet normal 0.0000e+00 0.0000e+00 1.0000e+00
    outer loop
      vertex -8.6021e-03 1.6239e-01 5.3587e-02
      vertex -1.3336e-02 1.6093e-01 5.3587e-02
      vertex -3.7106e-02 1.2630e-01 5.3587e-02
    endloop
  endfacet
  facet normal -4.0990e-01 -4.0207e-01 -8.1873e-01
    outer loop
      vertex -1.5252e-02 5.3449e-02 -3.4520e-02
      vertex -2.3519e-02 1.0167e-01 -5.4062e-02
      vertex -2.1610e-02 1.0198e-01 -5.5170e-02
    endloop
  endfacet
  facet normal 2.3134e-03 2.5035e-03 -9.9999e-01
    outer loop
      vertex 2.3906e-02 1.3459e-01 -5.6280e-02
      vertex 1.3687e-02 1.3884e-01 -5.6293e-02
      vertex 1.0616e-02 1.4727e-01 -5.6279e-02
    endloop
  endfacet
  facet normal 3.1307e-01 4.8517e-01 -8.1646e-01
    outer loop
      vertex 1.7259e-02 1.5277e-01 -5.2982e-02
      vertex 2.0321e-02 1.4932e-01 -5.3858e-02
      vertex 1.6148e-02 1.5086e-01 -5.4543e-02
    endloop
  endfacet
  facet normal -1.0486e-01 5.1710e-01 -8.4948e-01
    outer loop
      vertex -5.2956e-03 1.5622e-01 -5.3617e-02
      vertex -4.5839e-03 1.5460e-01 -5.4691e-02
      vertex -9.0910e-03 1.5513e-01 -5.3812e-02
    endloop
  endfacet
  facet normal -2.4862e-01 8.1149e-01 -5.2884e-01
    outer loop
      vertex -1.2285e-02 1.5764e-01 -5.0421e-02
      vertex -1.1513e-02 1.5903e-01 -4.8651e-02
      vertex -8.9074e-03 1.5871e-01 -5.0367e-02
    endloop
  endfacet
  facet normal 1.6553e-01 9.1010e-01 -3.7989e-01
    outer loop
      vertex 6.8754e-03 1.6061e-01 -4.7835e-02
      vertex 6.8807e-04 1.6154e-01 -4.8303e-02
      vertex -1.3401e-05 1.6209e-01 -4.7291e-02
    endloop
  endfacet
  facet normal 4.9414e-01 5.5256e-02 -8.6763e-01
    outer loop
      vertex 3.1752e-02 1.2901e-01 -5.4209e-02
      vertex 3.1997e-02 1.2572e-01 -5.4279e-02
      vertex 3.0101e-02 1.2578e-01 -5.5355e-02
    endloop
  endfacet
  facet normal -7.7437e-01 3.4011e-01 -5.3355e-01
    outer loop
      vertex -3.1071e-02 1.4062e-01 -5.1072e-02
      vertex -3.2138e-02 1.3724e-01 -5.1678e-02
      vertex -3.2408e-02 1.3994e-01 -4.9565e-02
    endloop
  endfacet
endsolid wrist1
